<svg
    width="128"
    height="128"
    viewBox="0 0 128 128"
    fill="none"
    xmlns="http://www.w3.org/2000/svg">
    <path fill-rule="evenodd"
        clip-rule="evenodd"
        d="M64 0C28.6571 0 0 29.373 0 65.632C0 94.6336 18.3429 119.206 43.7714 127.892C46.9714 128.493 48.1429 126.464 48.1429 124.721C48.1429 123.149 48.0857 119.035 48.0571 113.549C30.2571 117.52 26.4857 104.748 26.4857 104.748C23.5714 97.1766 19.3714 95.1479 19.3714 95.1479C13.5714 91.062 19.8 91.1477 19.8 91.1477C26.2286 91.6048 29.6 97.9195 29.6 97.9195C35.3143 107.949 44.5714 105.063 48.2286 103.377C48.8 99.1481 50.4571 96.2337 52.2857 94.605C38.0857 92.9478 23.1429 87.3189 23.1429 62.1747C23.1429 55.0029 25.6286 49.1455 29.7143 44.5738C29.0571 42.9166 26.8571 36.2305 30.3429 27.2014C30.3429 27.2014 35.7143 25.4299 47.9429 33.9161C53.0571 32.4589 58.5143 31.7445 63.9714 31.716C69.4 31.7445 74.8857 32.4589 80 33.9161C92.2286 25.4299 97.5714 27.2014 97.5714 27.2014C101.057 36.2305 98.8571 42.9166 98.2 44.5738C102.286 49.174 104.771 55.0315 104.771 62.1747C104.771 87.376 89.8 92.9192 75.5429 94.5479C77.8286 96.5765 79.8857 100.577 79.8857 106.691C79.8857 115.463 79.8 122.549 79.8 124.692C79.8 126.435 80.9429 128.492 84.2 127.835C109.686 119.178 128 94.605 128 65.632C128 29.373 99.3429 0 64 0Z"
        fill="black" />
</svg>
    