<svg
    width="48"
    height="48"
    viewBox="0 0 48 48"
    fill="none"
    xmlns="http://www.w3.org/2000/svg"
>
    <path
        fill-rule="evenodd"
        clip-rule="evenodd"
        d="M39.6911 11.1889C39.6911 12.7796 38.4015 14.0689 36.8111 14.0689C35.2208 14.0689 33.9311 12.7796 33.9311 11.1889C33.9311 9.59812 35.2208 8.30887 36.8111 8.30887C38.4019 8.30887 39.6911 9.59812 39.6911 11.1889ZM24 31.9999C19.5818 31.9999 16.0001 28.4182 16.0001 24C16.0001 19.5818 19.5818 16.0001 24 16.0001C28.4182 16.0001 31.9999 19.5818 31.9999 24C31.9999 28.4182 28.4182 31.9999 24 31.9999ZM24 11.6756C17.1934 11.6756 11.6756 17.1934 11.6756 24C11.6756 30.8066 17.1934 36.3244 24 36.3244C30.8066 36.3244 36.3244 30.8066 36.3244 24C36.3244 17.1934 30.8066 11.6756 24 11.6756ZM24 4.3245C30.4084 4.3245 31.1674 4.34887 33.6979 4.46437C36.0379 4.57125 37.3088 4.962 38.1544 5.29088C39.2745 5.72625 40.074 6.24637 40.914 7.08637C41.754 7.926 42.2741 8.7255 42.7095 9.846C43.038 10.6916 43.4291 11.9625 43.536 14.3025C43.6515 16.8334 43.6759 17.5924 43.6759 24.0007C43.6759 30.4091 43.6515 31.1681 43.536 33.6986C43.4291 36.0386 43.0384 37.3095 42.7095 38.1551C42.2741 39.2753 41.754 40.0748 40.914 40.9148C40.0744 41.7548 39.2749 42.2749 38.1544 42.7102C37.3088 43.0387 36.0379 43.4299 33.6979 43.5367C31.1674 43.6522 30.4084 43.6766 24 43.6766C17.5912 43.6766 16.8323 43.6522 14.3018 43.5367C11.9618 43.4299 10.6909 43.0391 9.84525 42.7102C8.72512 42.2749 7.92563 41.7548 7.08563 40.9148C6.246 40.0751 5.7255 39.2756 5.29013 38.1551C4.96163 37.3095 4.5705 36.0386 4.46362 33.6986C4.34812 31.1677 4.32375 30.4087 4.32375 24.0007C4.32375 17.5924 4.34812 16.8334 4.46362 14.3025C4.5705 11.9625 4.96125 10.6916 5.29013 9.846C5.7255 8.72588 6.24563 7.92637 7.08563 7.08637C7.92525 6.24637 8.72475 5.72625 9.84525 5.29088C10.6909 4.96238 11.9618 4.57125 14.3018 4.46437C16.8326 4.34887 17.5916 4.3245 24 4.3245ZM24 0C17.4821 0 16.6646 0.02775 14.1049 0.144375C11.5504 0.261 9.8055 0.66675 8.27925 1.26C6.70087 1.87312 5.3625 2.694 4.02825 4.02825C2.694 5.3625 1.87312 6.70087 1.26 8.27925C0.66675 9.80587 0.261 11.5504 0.144375 14.1049C0.02775 16.6646 0 17.4821 0 24C0 30.5179 0.02775 31.3354 0.144375 33.8951C0.261 36.4496 0.66675 38.1941 1.26 39.7207C1.87312 41.2991 2.694 42.6375 4.02825 43.9718C5.3625 45.306 6.70087 46.1265 8.27925 46.74C9.80587 47.3332 11.5504 47.739 14.1049 47.8556C16.6646 47.9722 17.4821 48 24 48C30.5179 48 31.3354 47.9722 33.8951 47.8556C36.4496 47.739 38.1941 47.3332 39.7207 46.74C41.2991 46.1265 42.6375 45.306 43.9718 43.9718C45.306 42.6375 46.1265 41.2991 46.74 39.7207C47.3332 38.1941 47.739 36.4496 47.8556 33.8951C47.9722 31.3354 48 30.5179 48 24C48 17.4821 47.9722 16.6646 47.8556 14.1049C47.739 11.5504 47.3332 9.80587 46.74 8.27925C46.1265 6.70087 45.306 5.3625 43.9718 4.02825C42.6375 2.694 41.2991 1.8735 39.7207 1.26C38.1941 0.66675 36.4496 0.261 33.8951 0.144375C31.3354 0.02775 30.5179 0 24 0Z"
        fill="url(#paint0_radial_98_1953)"
    />
    <defs>
        <radialGradient
            id="paint0_radial_98_1953"
            cx="0"
            cy="0"
            r="1"
            gradientUnits="userSpaceOnUse"
            gradientTransform="translate(7.16666 48.1666) scale(61.332)"
        >
            <stop stop-color="#FFB140" />
            <stop offset="0.2559" stop-color="#FF5445" />
            <stop offset="0.599" stop-color="#FC2B82" />
            <stop offset="1" stop-color="#8E40B7" />
        </radialGradient>
    </defs>
</svg>