<svg
    width="48"
    height="48"
    viewBox="0 0 48 48"
    fill="none"
    xmlns="http://www.w3.org/2000/svg"
>
    <path
        fill-rule="evenodd"
        clip-rule="evenodd"
        d="M48 6C48 2.68847 45.3115 0 42 0H6C2.68847 0 0 2.68847 0 6V42C0 45.3115 2.68847 48 6 48H42C45.3115 48 48 45.3115 48 42V6Z"
        fill="#2867B2"
    />
    <path d="M13.7638 16.75H5.72375V40.9339H13.7638V16.75Z" fill="white" />
    <path
        d="M9.798 5.08875C7.04728 5.08875 5.25 6.89718 5.25 9.26746C5.25 11.588 6.99262 13.4463 9.69159 13.4463H9.74353C12.5469 13.4463 14.2919 11.588 14.2919 9.26746C14.2399 6.89718 12.5471 5.08875 9.798 5.08875Z"
        fill="white"
    />
    <path
        d="M33.4948 16.1813C29.2302 16.1813 27.3199 18.5266 26.2502 20.174V16.75H18.2123C18.3189 19.0184 18.2123 40.9338 18.2123 40.9338H26.2501V27.4278C26.2501 26.7049 26.3021 25.9822 26.5152 25.4655C27.0953 24.0218 28.4187 22.5263 30.6395 22.5263C33.5469 22.5263 34.7116 24.7448 34.7116 27.9944V40.9338H42.7498V27.0654C42.7498 19.6369 38.7837 16.1813 33.4948 16.1813Z"
        fill="white"
    />
</svg>